<svg xmlns="http://www.w3.org/2000/svg" viewBox="-6.5 -6.78 63 47.28" font-family="'Noto Sans TC', 'Microsoft JhengHei', Helvetica, Arial, sans-serif"><line x1="0" y1="0" x2="0" y2="20.62" fill="none" stroke="#999999" stroke-width="0.03" stroke-dasharray="0.4 0.25"/><line x1="47.5" y1="-4.28" x2="47.5" y2="20.62" fill="none" stroke="#999999" stroke-width="0.03" stroke-dasharray="0.4 0.25"/><line x1="0" y1="20.62" x2="47.5" y2="20.62" fill="none" stroke="#999999" stroke-width="0.03" stroke-dasharray="0.4 0.25"/><line x1="0" y1="38" x2="47.5" y2="38" fill="none" stroke="#999999" stroke-width="0.03" stroke-dasharray="0.4 0.25"/><line x1="17.77" y1="8" x2="17.77" y2="20.62" fill="none" stroke="#999999" stroke-width="0.03" stroke-dasharray="0.4 0.25"/><line x1="30.93" y1="-4.28" x2="30.93" y2="20.62" fill="none" stroke="#999999" stroke-width="0.03" stroke-dasharray="0.4 0.25"/><line x1="23.05" y1="20.62" x2="23.05" y2="38" fill="none" stroke="#999999" stroke-width="0.03" stroke-dasharray="0.4 0.25"/><line x1="0" y1="8" x2="17.77" y2="8" fill="none" stroke="#999999" stroke-width="0.03" stroke-dasharray="0.4 0.25"/><line x1="0" y1="0" x2="17.77" y2="0" fill="none" stroke="#999999" stroke-width="0.03" stroke-dasharray="0.4 0.25"/><line x1="30.93" y1="-4.28" x2="47.5" y2="-4.28" fill="none" stroke="#999999" stroke-width="0.03" stroke-dasharray="0.4 0.25"/><path d="M 7.058 -2.353 C 6.411 -1.969, 4.353 -0.442, 3.176 -0.05 C 2 0.342, 0.529 -0.008, 0 0" fill="none" stroke="#111111" stroke-width="0.1"/><line x1="0" y1="0" x2="0" y2="20.62" fill="none" stroke="#111111" stroke-width="0.1"/><line x1="0" y1="20.62" x2="0.88" y2="38" fill="none" stroke="#111111" stroke-width="0.1"/><line x1="0.88" y1="38" x2="23.05" y2="38" fill="none" stroke="#111111" stroke-width="0.1"/><line x1="7.06" y1="-2.35" x2="20.44" y2="2" fill="none" stroke="#111111" stroke-width="0.1"/><path d="M 20.443 1.996 C 19.998 3.231, 18.22 7.267, 17.775 9.402 C 17.33 11.538, 17.473 13.241, 17.775 14.808 C 18.077 16.376, 18.705 17.839, 19.585 18.807 C 20.464 19.775, 22.475 20.315, 23.053 20.617" fill="none" stroke="#111111" stroke-width="0.1"/><path d="M 40.642 -4.283 C 40.927 -3.609, 41.213 -1.463, 42.356 -0.236 C 43.499 0.99, 46.643 2.523, 47.5 3.075" fill="none" stroke="#111111" stroke-width="0.1"/><line x1="47.5" y1="3.07" x2="47.5" y2="38" fill="none" stroke="#111111" stroke-width="0.1"/><line x1="47.5" y1="38" x2="23.05" y2="38" fill="none" stroke="#111111" stroke-width="0.1"/><line x1="40.64" y1="-4.28" x2="29.26" y2="0.32" fill="none" stroke="#111111" stroke-width="0.1"/><path d="M 29.256 0.317 C 29.534 1.283, 30.691 4.182, 30.925 6.114 C 31.159 8.047, 30.706 10.946, 30.662 11.912" fill="none" stroke="#111111" stroke-width="0.1"/><path d="M 28.331 14.808 C 28.065 15.51, 27.613 18.051, 26.734 19.019 C 25.854 19.987, 23.667 20.35, 23.053 20.617" fill="none" stroke="#111111" stroke-width="0.1"/><line x1="23.05" y1="20.62" x2="23.05" y2="38" fill="none" stroke="#111111" stroke-width="0.1"/><line x1="38.51" y1="20.62" x2="28.33" y2="14.81" fill="none" stroke="#c0392b" stroke-width="0.07"/><line x1="38.51" y1="20.62" x2="30.66" y2="11.91" fill="none" stroke="#c0392b" stroke-width="0.07"/><line x1="11.31" y1="-0.97" x2="9.89" y2="8" fill="none" stroke="#c0392b" stroke-width="0.07"/><line x1="13.02" y1="-0.42" x2="9.89" y2="8" fill="none" stroke="#c0392b" stroke-width="0.07"/><line x1="38.51" y1="23.12" x2="37.64" y2="38" fill="none" stroke="#c0392b" stroke-width="0.07"/><line x1="38.51" y1="23.12" x2="39.39" y2="38" fill="none" stroke="#c0392b" stroke-width="0.07"/><text x="38.51" y="38.9" fill="#777777" font-size="0.6" text-anchor="middle">a</text><line x1="29.83" y1="20.62" x2="28.89" y2="38" fill="none" stroke="#c0392b" stroke-width="0.07"/><line x1="29.83" y1="20.62" x2="30.77" y2="38" fill="none" stroke="#c0392b" stroke-width="0.07"/><text x="29.83" y="38.9" fill="#777777" font-size="0.6" text-anchor="middle">b</text><line x1="23.05" y1="20.62" x2="22.37" y2="38" fill="none" stroke="#c0392b" stroke-width="0.07"/><line x1="23.05" y1="20.62" x2="23.74" y2="38" fill="none" stroke="#c0392b" stroke-width="0.07"/><text x="23.05" y="38.9" fill="#777777" font-size="0.6" text-anchor="middle">c</text><line x1="16.77" y1="14.81" x2="14.59" y2="38" fill="none" stroke="#c0392b" stroke-width="0.07"/><line x1="16.77" y1="14.81" x2="18.96" y2="38" fill="none" stroke="#c0392b" stroke-width="0.07"/><text x="16.77" y="38.9" fill="#777777" font-size="0.6" text-anchor="middle">d</text><line x1="9.39" y1="18.62" x2="8.26" y2="38" fill="none" stroke="#c0392b" stroke-width="0.07"/><line x1="9.39" y1="18.62" x2="10.51" y2="38" fill="none" stroke="#c0392b" stroke-width="0.07"/><text x="9.39" y="38.9" fill="#777777" font-size="0.6" text-anchor="middle">e</text><text x="0.44" y="38.9" fill="#777777" font-size="0.6" text-anchor="middle">f</text><circle cx="38.51" cy="20.62" r="0.12" fill="#111111"/><text x="38.81" y="20.32" fill="#333333" font-size="0.75" text-anchor="start">BP</text><circle cx="29.26" cy="0.32" r="0.12" fill="#111111"/><text x="27.86" y="0.02" fill="#333333" font-size="0.75" text-anchor="start">SP</text><circle cx="20.44" cy="2" r="0.12" fill="#111111"/><text x="20.74" y="1.7" fill="#333333" font-size="0.75" text-anchor="start">SP</text><circle cx="28.33" cy="14.81" r="0.12" fill="#111111"/><text x="28.58" y="14.81" fill="#333333" font-size="0.75" text-anchor="start">G</text><circle cx="9.89" cy="8" r="0.12" fill="#111111"/><text x="10.09" y="7.7" fill="#333333" font-size="0.75" text-anchor="start">E</text><text x="-1.9" y="0.2" fill="#333333" font-size="0.75" text-anchor="start">A</text><text x="-1.9" y="20.82" fill="#333333" font-size="0.75" text-anchor="start">BL</text><text x="-1.9" y="38.2" fill="#333333" font-size="0.75" text-anchor="start">WL</text><text x="47.9" y="20.82" fill="#333333" font-size="0.75" text-anchor="start">BL</text><text x="47.9" y="38.2" fill="#333333" font-size="0.75" text-anchor="start">WL</text><text x="8.89" y="22.82" fill="#777777" font-size="0.6" text-anchor="middle">BACK</text><text x="39.21" y="22.82" fill="#777777" font-size="0.6" text-anchor="middle">FRONT</text><line x1="-3" y1="0" x2="-3" y2="38" stroke="#2980b9" stroke-width="0.1"/><line x1="-3.4" y1="0" x2="-2.2" y2="0" stroke="#2980b9" stroke-width="0.1"/><line x1="-3.4" y1="38" x2="-2.2" y2="38" stroke="#2980b9" stroke-width="0.1"/><text x="-4.4" y="19" fill="#2980b9" font-size="1.2" text-anchor="middle" writing-mode="tb">背長</text><text x="49.2" y="20.9" fill="#2980b9" font-size="1.1">胸圍線(B)</text><text x="49.2" y="38.1" fill="#2980b9" font-size="1.1">腰圍線(W)</text><line x1="17.8" y1="8.4" x2="14.1" y2="4.7" stroke="#e60000" stroke-width="1.1"/><polygon points="12.4,3.0 14.75,4.05 13.45,5.35" fill="#e60000"/><text x="18.3" y="9.6" fill="#e60000" font-size="2" font-weight="bold">肩褶</text></svg>
