<svg xmlns="http://www.w3.org/2000/svg" viewBox="0 0 88 47" font-family="'Noto Sans TC', 'Microsoft JhengHei', sans-serif">
  <!-- 左:原型上的褶子 -->
  <path d="M 23.5 11 L 23.5 36 L 6 36 L 6 23.5 C 9 22.8, 11.5 21.5, 12 18 C 12.5 15, 11.5 12, 10 9 L 18 5.5 C 18.7 8.8, 20.5 10.7, 23.5 11 Z" fill="none" stroke="#111" stroke-width="0.25"/>
  <circle cx="17.5" cy="23" r="0.45" fill="#111"/>
  <text x="18.6" y="22.3" fill="#333" font-size="2.2">BP</text>
  <line x1="11.97" y1="14.55" x2="17.5" y2="23" stroke="#e60000" stroke-width="0.45"/>
  <line x1="11.5" y1="19.9" x2="17.5" y2="23" stroke="#e60000" stroke-width="0.45"/>
  <line x1="17.5" y1="25.2" x2="16.8" y2="36" stroke="#e60000" stroke-width="0.45"/>
  <line x1="17.5" y1="25.2" x2="18.2" y2="36" stroke="#e60000" stroke-width="0.45"/>
  <text x="10.2" y="13.8" fill="#e60000" font-size="2.2" text-anchor="end">胸褶</text>
  <text x="17.5" y="39.5" fill="#e60000" font-size="2.2" text-anchor="middle">腰褶 a</text>
  <text x="14.75" y="44.5" fill="#555" font-size="2.9" text-anchor="middle">原型上的褶子</text>
  <!-- 中:箭頭 -->
  <line x1="36" y1="20" x2="44" y2="20" stroke="#8b5e4f" stroke-width="0.55"/>
  <polygon points="44,18.6 47,20 44,21.4" fill="#8b5e4f"/>
  <!-- 右:連成一條公主線 -->
  <path d="M 75.5 11 L 75.5 36 L 58 36 L 58 23.5 C 61 22.8, 63.5 21.5, 64 18 C 64.5 15, 63.5 12, 62 9 L 70 5.5 C 70.7 8.8, 72.5 10.7, 75.5 11 Z" fill="none" stroke="#111" stroke-width="0.25"/>
  <path d="M 64.3 15.5 C 67 18, 69 20.5, 69.5 23 C 70 26, 69.8 31, 69.8 36" fill="none" stroke="#e60000" stroke-width="0.45"/>
  <text x="71" y="17.5" fill="#777" font-size="2.2" text-anchor="middle">中前片</text>
  <text x="63.5" y="30" fill="#777" font-size="2.2" text-anchor="middle">前脇片</text>
  <text x="66.75" y="44.5" fill="#555" font-size="2.9" text-anchor="middle">連成一條公主線</text>
</svg>
