<svg xmlns="http://www.w3.org/2000/svg" viewBox="0 0 106 48" font-family="'Noto Sans TC', 'Microsoft JhengHei', sans-serif">
  <!-- ① 胸褶+腰褶a連成公主線 -->
  <path d="M 23.5 11 L 23.5 36 L 6 36 L 6 23.5 C 9 22.8, 11.5 21.5, 12 18 C 12.5 15, 11.5 12, 10 9 L 18 5.5 C 18.7 8.8, 20.5 10.7, 23.5 11 Z" fill="none" stroke="#111" stroke-width="0.25"/>
  <path d="M 12.3 15.5 C 15 18, 17 20.5, 17.5 23 C 18 26, 17.8 31, 17.8 36" fill="none" stroke="#e60000" stroke-width="0.45"/>
  <circle cx="17.5" cy="23" r="0.4" fill="#111"/>
  <text x="19" y="17.5" fill="#777" font-size="2.1">中前片</text>
  <text x="11.5" y="30" fill="#777" font-size="2.1" text-anchor="middle">脇片</text>
  <text x="14.75" y="44.5" fill="#555" font-size="2.6" text-anchor="middle">① 連成公主線</text>
  <!-- 箭頭1 -->
  <line x1="26.5" y1="20" x2="29.5" y2="20" stroke="#8b5e4f" stroke-width="0.5"/>
  <polygon points="29.5,18.7 32,20 29.5,21.3" fill="#8b5e4f"/>
  <!-- ② 沿線剪開、脇片往左下推(黃色=加出來的量) -->
  <path d="M 46.3 15.5 C 49 18, 51 20.5, 51.5 23 C 52 26, 51.8 31, 51.8 36 L 48.3 38.5 C 48.3 33.5, 48.5 28.5, 48 25.5 C 47.5 23, 45.5 20.5, 42.8 18 Z" fill="#f7de6b" stroke="none"/>
  <path d="M 46.3 15.5 C 46.45 13.5, 45.5 11.5, 44 9 L 52 5.5 C 52.7 8.8, 54.5 10.7, 57.5 11 L 57.5 36 L 51.8 36 C 51.8 31, 52 26, 51.5 23 C 51 20.5, 49 18, 46.3 15.5 Z" fill="none" stroke="#111" stroke-width="0.25"/>
  <path d="M 42.8 18 L 42.5 20.5 C 42 24, 39.5 25.3, 36.5 26 L 36.5 38.5 L 48.3 38.5 C 48.3 33.5, 48.5 28.5, 48 25.5 C 47.5 23, 45.5 20.5, 42.8 18 Z" fill="none" stroke="#111" stroke-width="0.25"/>
  <line x1="40" y1="19.5" x2="37.3" y2="22.1" stroke="#e60000" stroke-width="0.5"/>
  <polygon points="37.9,23 36.2,23.2 36.9,21.5" fill="#e60000"/>
  <text x="37" y="17.8" fill="#e60000" font-size="2.2" text-anchor="middle">往左下推</text>
  <text x="47" y="44.5" fill="#555" font-size="2.6" text-anchor="middle">② 沿線剪開、把脇片推出去</text>
  <!-- 箭頭2 -->
  <line x1="60.5" y1="20" x2="63.5" y2="20" stroke="#8b5e4f" stroke-width="0.5"/>
  <polygon points="63.5,18.7 66,20 63.5,21.3" fill="#8b5e4f"/>
  <!-- ③ 肩點往外、順出新的袖襱 -->
  <path d="M 78.3 15.5 C 81 18, 83 20.5, 83.5 23 C 84 26, 83.8 31, 83.8 36 L 80.3 38.5 C 80.3 33.5, 80.5 28.5, 80 25.5 C 79.5 23, 77.5 20.5, 74.8 18 Z" fill="#f7de6b" stroke="none"/>
  <path d="M 78.3 15.5 C 78.45 13.5, 77.5 11.5, 76 9 L 84 5.5 C 84.7 8.8, 86.5 10.7, 89.5 11 L 89.5 36 L 83.8 36 C 83.8 31, 84 26, 83.5 23 C 83 20.5, 81 18, 78.3 15.5 Z" fill="none" stroke="#111" stroke-width="0.25"/>
  <path d="M 74.8 18 L 74.5 20.5 C 74 24, 71.5 25.3, 68.5 26 L 68.5 38.5 L 80.3 38.5 C 80.3 33.5, 80.5 28.5, 80 25.5 C 79.5 23, 77.5 20.5, 74.8 18 Z" fill="none" stroke="#111" stroke-width="0.25"/>
  <line x1="76" y1="9" x2="73.6" y2="10.05" stroke="#e60000" stroke-width="0.5"/>
  <path d="M 73.6 10.05 C 74.6 13, 75.1 15.5, 74.8 18" fill="none" stroke="#e60000" stroke-width="0.45"/>
  <text x="72.8" y="8.3" fill="#e60000" font-size="2.1" text-anchor="end">肩點往外</text>
  <text x="72.9" y="14.5" fill="#e60000" font-size="2.1" text-anchor="end">新的袖襱</text>
  <text x="91" y="24.5" fill="#b8860b" font-size="2.1">黃色＝</text>
  <text x="91" y="27.5" fill="#b8860b" font-size="2.1">加出來的量</text>
  <line x1="90.6" y1="25.5" x2="85" y2="26.5" stroke="#b8860b" stroke-width="0.2"/>
  <text x="79" y="44.5" fill="#555" font-size="2.6" text-anchor="middle">③ 肩點往外、順出新的袖襱</text>
</svg>
